<?xml version="1.0" encoding="UTF-8" standalone="no"?>
<!-- Created with Inkscape (http://www.inkscape.org/) -->

<svg
   width="836.36945mm"
   height="156.24968mm"
   viewBox="0 0 836.36945 156.24968"
   version="1.1"
   id="svg16298"
   xmlns="http://www.w3.org/2000/svg"
   xmlns:svg="http://www.w3.org/2000/svg">
  <defs
     id="defs16295" />
  <g
     id="layer1"
     transform="translate(302.3515,-92.0997)">
    <g
       fill="var(--color-brand)"
       data-v-4efc4064=""
       id="g10-7-3-20"
       style="fill:#00af5c;fill-opacity:1"
       transform="matrix(0.26458333,0,0,0.26458333,-302.3515,92.0997)">
      <path
         d="m 29,424.4 188.2,-112.95 -17.15,-45.48 53.75,-55.21 67.93,-14.64 19.67,24.21 -31.32,31.72 -27.3,8.6 -19.52,20.05 9.56,26.6 19.4,20.6 27.36,-7.28 19.47,-21.38 42.51,-13.47 12.67,28.5 -43.87,53.78 -73.5,23.27 -32.97,-36.7 L 55.06,467.94 C 46.1,456.41 35.67,440.08 29,424.4 Z m 543.03,-230.25 -149.5,40.32 c 8.24,21.92 10.95,34.8 13.23,49 l 149.23,-40.26 c -2.38,-15.94 -6.65,-32.17 -12.96,-49.06 z"
         data-v-4efc4064=""
         id="path4-3-5-5"
         style="fill:#00af5c;fill-opacity:1" />
      <path
         d="m 51.28,316.13 c 10.59,125 115.54,223.3 243.27,223.3 96.51,0 180.02,-56.12 219.63,-137.46 l 48.61,16.83 C 516.01,520.14 413.44,590.55 294.55,590.55 138.6,590.55 10.71,469.38 0,316.13 Z M 0.78,265.24 C 15.86,116.36 141.73,0 294.56,0 c 162.97,0 295.28,132.31 295.28,295.28 0,26.14 -3.4,51.49 -9.8,75.63 l -48.48,-16.78 a 244.28,244.28 0 0 0 7.15,-58.85 C 538.71,160.53 429.31,51.13 294.56,51.13 169.98,51.13 67.07,144.63 52.24,265.24 H 0.8 Z"
         class="ring ring--large"
         data-v-4efc4064=""
         id="path6-2-7-9"
         style="fill:#00af5c;fill-opacity:1" />
      <path
         d="m 293.77,153.17 c -78.49,0.07 -142.2,63.83 -142.2,142.34 0,78.56 63.79,142.34 142.35,142.34 3.98,0 7.93,-0.16 11.83,-0.49 l 14.22,49.76 a 194.65,194.65 0 0 1 -26.05,1.74 c -106.72,0 -193.36,-86.64 -193.36,-193.35 0,-106.72 86.64,-193.35 193.36,-193.35 2.64,0 5.28,0.05 7.9,0.16 z m 58.2,-42.13 c 78.39,24.67 135.3,97.98 135.3,184.47 0,80.07 -48.77,148.83 -118.2,178.18 L 354.9,424.14 c 48.08,-22.85 81.36,-71.89 81.36,-128.63 0,-60.99 -38.44,-113.07 -92.39,-133.32 z"
         class="ring ring--small"
         data-v-4efc4064=""
         id="path8-4-4-6"
         style="fill:#00af5c;fill-opacity:1" />
    </g>
    <g
       aria-label="datarinth"
       transform="scale(1.001167,0.99883437)"
       id="text1-3-47-8"
       style="font-size:140.699px;line-height:1.25;font-family:Montserrat;-inkscape-font-specification:Montserrat;letter-spacing:-0.562794px;stroke-width:0.281396">
      <path
         d="m -86.524432,223.60942 q -10.833824,0 -19.557158,-4.78377 -8.58264,-4.92446 -13.50711,-13.5071 -4.92446,-8.58264 -4.92446,-20.26066 0,-11.67801 4.92446,-20.26065 4.92447,-8.58264 13.50711,-13.36641 8.723334,-4.78377 19.557158,-4.78377 9.426833,0 16.88388,4.22097 7.457048,4.08028 11.818717,12.52222 4.361669,8.44194 4.361669,21.66764 0,13.08501 -4.22097,21.66765 -4.22097,8.44194 -11.678018,12.66291 -7.457047,4.22097 -17.165278,4.22097 z m 2.110485,-15.05479 q 6.331455,0 11.25592,-2.81398 5.065164,-2.81398 8.019843,-8.16055 3.095379,-5.34656 3.095379,-12.52221 0,-7.31635 -3.095379,-12.52221 -2.954679,-5.34656 -8.019843,-8.16054 -4.924465,-2.81398 -11.25592,-2.81398 -6.331456,0 -11.39662,2.81398 -4.924463,2.81398 -8.019843,8.16054 -2.95468,5.20586 -2.95468,12.52221 0,7.17565 2.95468,12.52221 3.09538,5.34657 8.019843,8.16055 5.065164,2.81398 11.39662,2.81398 z m 22.793239,14.0699 v -17.72808 l 0.703495,-19.97926 -1.40699,-19.97926 v -46.71206 h 17.446676 v 104.39866 z"
         style="font-weight:600;-inkscape-font-specification:'Montserrat Semi-Bold'"
         id="path16852" />
      <path
         d="m 24.065023,222.62453 v -15.1955 l -0.984893,-3.23607 v -26.59211 q 0,-7.73845 -4.643067,-11.95942 -4.643067,-4.36167 -14.0699007,-4.36167 -6.3314552,0 -12.5222114,1.96979 -6.0500569,1.96978 -10.2710279,5.48726 l -6.894251,-12.80361 q 6.050057,-4.64307 14.351299,-6.89425 8.4419401,-2.39189 17.4466764,-2.39189 16.3210846,0 25.1851216,7.87915 9.004737,7.73844 9.004737,24.05953 v 44.03879 z m -23.63743282,0.98489 q -8.44194028,0 -14.77339518,-2.81398 -6.331456,-2.95468 -9.848931,-8.01984 -3.376776,-5.20587 -3.376776,-11.67802 0,-6.33146 2.954679,-11.39662 3.095378,-5.06516 9.98963,-8.01984 6.8942509,-2.95468 18.2908703,-2.95468 H 25.472013 v 11.67801 H 4.9299583 q -9.0047363,0 -12.1001144,2.95468 -3.0953779,2.81398 -3.0953779,7.03495 0,4.78377 3.7988729,7.59775 3.7988732,2.81398 10.5524254,2.81398 6.4721547,0 11.5373187,-2.95468 5.205863,-2.95468 7.457047,-8.72334 l 2.954679,10.55243 q -2.532582,6.61285 -9.145435,10.27103 -6.472154,3.65817 -16.46178382,3.65817 z"
         style="font-weight:600;-inkscape-font-specification:'Montserrat Semi-Bold'"
         id="path16854" />
      <path
         d="m 90.897103,223.60942 q -12.381512,0 -19.135065,-6.33146 -6.753552,-6.47215 -6.753552,-18.99436 v -67.39482 h 17.587376 v 66.97272 q 0,5.34656 2.673281,8.30124 2.81398,2.95468 7.738445,2.95468 5.909358,0 9.848932,-3.09538 l 4.92446,12.52222 q -3.09537,2.53258 -7.59774,3.79887 -4.502371,1.26629 -9.286137,1.26629 z M 52.626974,162.12395 v -14.0699 h 50.088846 v 14.0699 z"
         style="font-weight:600;-inkscape-font-specification:'Montserrat Semi-Bold'"
         id="path16856" />
      <path
         d="m 168.00013,222.62453 v -15.1955 l -0.9849,-3.23607 v -26.59211 q 0,-7.73845 -4.64306,-11.95942 -4.64307,-4.36167 -14.0699,-4.36167 -6.33146,0 -12.52221,1.96979 -6.05006,1.96978 -10.27103,5.48726 l -6.89425,-12.80361 q 6.05005,-4.64307 14.3513,-6.89425 8.44194,-2.39189 17.44667,-2.39189 16.32109,0 25.18512,7.87915 9.00474,7.73844 9.00474,24.05953 v 44.03879 z m -23.63744,0.98489 q -8.44194,0 -14.77339,-2.81398 -6.33146,-2.95468 -9.84893,-8.01984 -3.37678,-5.20587 -3.37678,-11.67802 0,-6.33146 2.95468,-11.39662 3.09538,-5.06516 9.98963,-8.01984 6.89425,-2.95468 18.29087,-2.95468 h 21.80835 v 11.67801 h -20.54206 q -9.00473,0 -12.10011,2.95468 -3.09538,2.81398 -3.09538,7.03495 0,4.78377 3.79887,7.59775 3.79888,2.81398 10.55243,2.81398 6.47215,0 11.53732,-2.95468 5.20586,-2.95468 7.45704,-8.72334 l 2.95468,10.55243 q -2.53258,6.61285 -9.14543,10.27103 -6.47216,3.65817 -16.46179,3.65817 z"
         style="font-weight:600;-inkscape-font-specification:'Montserrat Semi-Bold'"
         id="path16858" />
      <path
         d="m 206.55171,222.62453 v -75.13327 h 16.74318 v 20.68275 l -1.96979,-6.05006 q 3.37678,-7.59774 10.55243,-11.53731 7.31635,-3.93958 18.15017,-3.93958 v 16.74319 q -1.12559,-0.2814 -2.11049,-0.2814 -0.98489,-0.1407 -1.96978,-0.1407 -9.98963,0 -15.89899,5.90936 -5.90936,5.76866 -5.90936,17.30597 v 36.44105 z"
         style="font-weight:600;-inkscape-font-specification:'Montserrat Semi-Bold'"
         id="path16860" />
      <path
         d="m 264.37913,222.62453 v -75.13327 h 17.58738 v 75.13327 z m 8.86404,-87.51478 q -4.92447,0 -8.16054,-3.09538 -3.09538,-3.09538 -3.09538,-7.45705 0,-4.50237 3.09538,-7.45705 3.23607,-3.09537 8.16054,-3.09537 4.92446,0 8.01984,2.95467 3.23608,2.81398 3.23608,7.17565 0,4.64307 -3.09538,7.87915 -3.09538,3.09538 -8.16054,3.09538 z"
         style="font-weight:600;-inkscape-font-specification:'Montserrat Semi-Bold'"
         id="path16862" />
      <path
         d="m 347.11008,146.64706 q 9.00474,0 16.03969,3.51748 7.17565,3.51747 11.25592,10.83382 4.08027,7.17565 4.08027,18.57227 v 43.0539 h -17.58738 v -40.80271 q 0,-9.98963 -4.78376,-14.9141 -4.64307,-4.92446 -13.08501,-4.92446 -6.19076,0 -10.97452,2.53258 -4.78377,2.53258 -7.45705,7.59774 -2.53258,4.92447 -2.53258,12.52222 v 37.98873 h -17.58738 v -75.13327 h 16.74318 v 20.26065 l -2.95468,-6.19075 q 3.93958,-7.17565 11.39662,-10.97452 7.59775,-3.93958 17.44668,-3.93958 z"
         style="font-weight:600;-inkscape-font-specification:'Montserrat Semi-Bold'"
         id="path16864" />
      <path
         d="m 428.57473,223.60942 q -12.38151,0 -19.13506,-6.33146 -6.75356,-6.47215 -6.75356,-18.99436 v -67.39482 h 17.58738 v 66.97272 q 0,5.34656 2.67328,8.30124 2.81398,2.95468 7.73845,2.95468 5.90935,0 9.84893,-3.09538 l 4.92446,12.52222 q -3.09538,2.53258 -7.59774,3.79887 -4.50237,1.26629 -9.28614,1.26629 z M 390.3046,162.12395 v -14.0699 h 50.08885 v 14.0699 z"
         style="font-weight:600;-inkscape-font-specification:'Montserrat Semi-Bold'"
         id="path16866" />
      <path
         d="m 502.0196,146.64706 q 9.00473,0 16.03968,3.51748 7.17565,3.51747 11.25592,10.83382 4.08027,7.17565 4.08027,18.57227 v 43.0539 H 515.8081 v -40.80271 q 0,-9.98963 -4.78377,-14.9141 -4.64306,-4.92446 -13.08501,-4.92446 -6.19075,0 -10.97452,2.53258 -4.78376,2.53258 -7.45704,7.59774 -2.53259,4.92447 -2.53259,12.52222 v 37.98873 H 459.3878 V 118.22587 h 17.58737 v 49.52604 l -3.79887,-6.19075 q 3.93957,-7.17565 11.39662,-10.97452 7.59775,-3.93958 17.44668,-3.93958 z"
         style="font-weight:600;-inkscape-font-specification:'Montserrat Semi-Bold'"
         id="path16868" />
    </g>
  </g>
</svg>
