  <svg width="4380mm" height="593mm" viewBox="0 0 4380 593" version="1.1" id="svg1015"
    inkscape:version="1.1.2 (b8e25be833, 2022-02-05)" sodipodi:docname="nMwordmark.svg"
    xmlns:inkscape="http://www.inkscape.org/namespaces/inkscape"
    xmlns:sodipodi="http://sodipodi.sourceforge.net/DTD/sodipodi-0.dtd" xmlns:xlink="http://www.w3.org/1999/xlink"
    xmlns="http://www.w3.org/2000/svg" xmlns:svg="http://www.w3.org/2000/svg">
    <sodipodi:namedview id="namedview1017" pagecolor="#ffffff" bordercolor="#999999" borderopacity="1"
      inkscape:pageshadow="0" inkscape:pageopacity="0" inkscape:pagecheckerboard="0" inkscape:document-units="mm"
      showgrid="true" inkscape:snap-bbox="true" inkscape:bbox-paths="true" inkscape:bbox-nodes="true"
      inkscape:snap-bbox-edge-midpoints="true" inkscape:snap-bbox-midpoints="true" inkscape:zoom="0.046435711"
      inkscape:cx="8140.2867" inkscape:cy="1733.5796" inkscape:window-width="1920" inkscape:window-height="1001"
      inkscape:window-x="-9" inkscape:window-y="-9" inkscape:window-maximized="1" inkscape:current-layer="layer1">
      <inkscape:grid type="xygrid" id="grid1076" units="mm" spacingx="0.99999999" spacingy="0.99999999" />
    </sodipodi:namedview>
    <defs id="defs1012">
      <linearGradient inkscape:collect="always" xlink:href="#linearGradient41513" id="linearGradient39099"
        gradientUnits="userSpaceOnUse" gradientTransform="matrix(9.8833445,0,0,9.8833445,12217.566,-16296.582)"
        x1="-1236.177" y1="1708.8937" x2="-1176.177" y2="1648.8937" />
      <linearGradient inkscape:collect="always" id="linearGradient41513">
        <stop style="stop-color:#f60031;stop-opacity:1" offset="0" id="stop41509" />
        <stop style="stop-color:#f800a9;stop-opacity:1" offset="1" id="stop41511" />
      </linearGradient>
    </defs>
    <g inkscape:label="Layer 1" inkscape:groupmode="layer" id="layer1">
      <g aria-label="nineMinecraft" transform="scale(1.001167,0.99883437)" id="text1-3-47-7" fill="currentColor"
        style="font-size:521.467px;line-height:1.25;font-family:Montserrat;-inkscape-font-specification:Montserrat;letter-spacing:-2.08586px;stroke-width:1.04292;fill-opacity:1">
        <path
          d="m 857.26613,201.76754 q 33.37389,0 59.44724,13.03668 26.59481,13.03667 41.71735,40.15295 15.12255,26.59482 15.12255,68.83364 v 159.5689 H 908.36989 V 332.13429 q 0,-37.02416 -17.72987,-55.2755 -17.20841,-18.25135 -48.49643,-18.25135 -22.94455,0 -40.67443,9.38641 -17.72987,9.3864 -27.63775,28.15921 -9.3864,18.25135 -9.3864,46.41057 V 483.35971 H 699.26164 V 204.89634 h 62.05457 v 75.09125 L 750.3654,257.04304 q 14.60107,-26.59481 42.23882,-40.67442 28.15922,-14.60108 64.66191,-14.60108 z"
          style="font-weight:600;-inkscape-font-specification:'Montserrat Semi-Bold';fill-opacity:1" id="path829" />
        <path
          d="M 1054.3804,483.35971 V 204.89634 h 65.1834 v 278.46337 z m 32.8524,-324.35246 q -18.2513,0 -30.2451,-11.47227 -11.4723,-11.47228 -11.4723,-27.63775 0,-16.68695 11.4723,-27.637754 11.9938,-11.472274 30.2451,-11.472274 18.2513,0 29.7236,10.950807 11.9938,10.429341 11.9938,26.594811 0,17.20842 -11.4723,29.20216 -11.4723,11.47227 -30.2451,11.47227 z"
          style="font-weight:600;-inkscape-font-specification:'Montserrat Semi-Bold';fill-opacity:1" id="path831" />
        <path
          d="m 1361.0027,201.76754 q 33.3739,0 59.4473,13.03668 26.5948,13.03667 41.7173,40.15295 15.1226,26.59482 15.1226,68.83364 v 159.5689 h -65.1834 V 332.13429 q 0,-37.02416 -17.7299,-55.2755 -17.2084,-18.25135 -48.4964,-18.25135 -22.9446,0 -40.6744,9.38641 -17.7299,9.3864 -27.6378,28.15921 -9.3864,18.25135 -9.3864,46.41057 v 140.79608 h -65.1834 V 204.89634 h 62.0546 v 75.09125 l -10.9508,-22.94455 q 14.6011,-26.59481 42.2388,-40.67442 28.1592,-14.60108 64.6619,-14.60108 z"
          style="font-weight:600;-inkscape-font-specification:'Montserrat Semi-Bold';fill-opacity:1" id="path833" />
        <path
          d="m 1689.5264,487.00998 q -46.4106,0 -81.3489,-18.25134 -34.4168,-18.77282 -53.7111,-51.10377 -18.7728,-32.33095 -18.7728,-73.52684 0,-41.71736 18.2514,-73.52685 18.7728,-32.33095 51.1037,-50.58229 32.8524,-18.25135 74.5698,-18.25135 40.6744,0 72.4839,17.72988 31.8095,17.72988 50.0608,50.06083 18.2514,32.33095 18.2514,76.13418 0,4.17173 -0.5215,9.3864 0,5.21467 -0.5214,9.90788 h -232.0529 v -43.28176 h 197.636 l -25.5519,13.55814 q 0.5215,-23.98748 -9.9078,-42.23883 -10.4294,-18.25134 -28.6807,-28.68068 -17.7299,-10.42934 -41.1959,-10.42934 -23.9875,0 -42.2388,10.42934 -17.7299,10.42934 -28.1592,29.20215 -9.9079,18.25134 -9.9079,43.28176 v 10.42934 q 0,25.03041 11.4723,44.32469 11.4722,19.29428 32.3309,29.72362 20.8587,10.42934 47.975,10.42934 23.466,0 42.2388,-7.30054 18.7728,-7.30054 33.3739,-22.94455 l 34.9383,40.15296 q -18.7728,21.90162 -47.4535,33.89536 -28.1592,11.47227 -64.6619,11.47227 z"
          style="font-weight:600;-inkscape-font-specification:'Montserrat Semi-Bold';fill-opacity:1" id="path835" />
        <path
          d="M 1887.1622,483.35971 V 118.33282 h 55.797 l 159.5688,266.46963 h -29.2021 l 156.9616,-266.46963 h 55.7969 l 0.5215,365.02689 h -64.1404 l -0.5215,-264.38376 h 13.5581 l -133.4955,222.6664 h -30.2451 l -135.5814,-222.6664 h 15.644 v 264.38376 z"
          style="font-weight:600;-inkscape-font-specification:'Montserrat Semi-Bold';fill-opacity:1" id="path837" />
        <path
          d="M 2376.8196,483.35971 V 204.89634 h 65.1834 v 278.46337 z m 32.8524,-324.35246 q -18.2513,0 -30.245,-11.47227 -11.4723,-11.47228 -11.4723,-27.63775 0,-16.68695 11.4723,-27.637754 11.9937,-11.472274 30.245,-11.472274 18.2514,0 29.7237,10.950807 11.9937,10.429341 11.9937,26.594811 0,17.20842 -11.4723,29.20216 -11.4723,11.47227 -30.2451,11.47227 z"
          style="font-weight:600;-inkscape-font-specification:'Montserrat Semi-Bold';fill-opacity:1" id="path839" />
        <path
          d="m 2683.442,201.76754 q 33.3739,0 59.4473,13.03668 26.5948,13.03667 41.7173,40.15295 15.1226,26.59482 15.1226,68.83364 v 159.5689 h -65.1834 V 332.13429 q 0,-37.02416 -17.7299,-55.2755 -17.2084,-18.25135 -48.4964,-18.25135 -22.9446,0 -40.6744,9.38641 -17.7299,9.3864 -27.6378,28.15921 -9.3864,18.25135 -9.3864,46.41057 v 140.79608 h -65.1834 V 204.89634 h 62.0546 v 75.09125 l -10.9508,-22.94455 q 14.6011,-26.59481 42.2388,-40.67442 28.1592,-14.60108 64.6619,-14.60108 z"
          style="font-weight:600;-inkscape-font-specification:'Montserrat Semi-Bold';fill-opacity:1" id="path841" />
        <path
          d="m 3011.9655,487.00998 q -46.4105,0 -81.3488,-18.25134 -34.4168,-18.77282 -53.7111,-51.10377 -18.7728,-32.33095 -18.7728,-73.52684 0,-41.71736 18.2513,-73.52685 18.7728,-32.33095 51.1038,-50.58229 32.8524,-18.25135 74.5697,-18.25135 40.6745,0 72.484,17.72988 31.8094,17.72988 50.0608,50.06083 18.2513,32.33095 18.2513,76.13418 0,4.17173 -0.5214,9.3864 0,5.21467 -0.5215,9.90788 H 2909.758 v -43.28176 h 197.636 l -25.5519,13.55814 q 0.5215,-23.98748 -9.9079,-42.23883 -10.4293,-18.25134 -28.6807,-28.68068 -17.7298,-10.42934 -41.1959,-10.42934 -23.9874,0 -42.2388,10.42934 -17.7299,10.42934 -28.1592,29.20215 -9.9079,18.25134 -9.9079,43.28176 v 10.42934 q 0,25.03041 11.4723,44.32469 11.4723,19.29428 32.331,29.72362 20.8586,10.42934 47.9749,10.42934 23.466,0 42.2388,-7.30054 18.7729,-7.30054 33.3739,-22.94455 l 34.9383,40.15296 q -18.7728,21.90162 -47.4535,33.89536 -28.1592,11.47227 -64.6619,11.47227 z"
          style="font-weight:600;-inkscape-font-specification:'Montserrat Semi-Bold';fill-opacity:1" id="path843" />
        <path
          d="m 3331.1033,487.00998 q -43.8032,0 -78.22,-18.25134 -33.8954,-18.77282 -53.1897,-51.10377 -19.2942,-32.33095 -19.2942,-73.52684 0,-41.71736 19.2942,-73.52685 19.2943,-32.33095 53.1897,-50.58229 34.4168,-18.25135 78.22,-18.25135 40.6744,0 71.441,16.68694 31.288,16.16548 47.4535,47.97497 l -50.0608,29.20215 q -12.5152,-19.81575 -30.7666,-29.20215 -17.7299,-9.38641 -38.5885,-9.38641 -23.9875,0 -43.2818,10.42934 -19.2943,10.42934 -30.2451,30.24509 -10.9508,19.29427 -10.9508,46.41056 0,27.11628 10.9508,46.93203 10.9508,19.29427 30.2451,29.72361 19.2943,10.42934 43.2818,10.42934 20.8586,0 38.5885,-9.3864 18.2514,-9.38641 30.7666,-29.20215 l 50.0608,29.20215 q -16.1655,31.28802 -47.4535,48.49643 -30.7666,16.68694 -71.441,16.68694 z"
          style="font-weight:600;-inkscape-font-specification:'Montserrat Semi-Bold';fill-opacity:1" id="path845" />
        <path
          d="M 3504.2299,483.35971 V 204.89634 h 62.0546 v 76.65565 l -7.3006,-22.42308 q 12.5152,-28.15922 39.1101,-42.76029 27.1162,-14.60108 67.2692,-14.60108 v 62.05457 q -4.1717,-1.04293 -7.822,-1.04293 -3.6503,-0.52147 -7.3005,-0.52147 -37.0242,0 -58.9258,21.90161 -21.9016,21.38015 -21.9016,64.14044 v 135.05995 z"
          style="font-weight:600;-inkscape-font-specification:'Montserrat Semi-Bold';fill-opacity:1" id="path847" />
        <path
          d="m 3870.3003,483.35971 v -56.31843 l -3.6502,-11.99374 v -98.55726 q 0,-28.68069 -17.2084,-44.3247 -17.2084,-16.16547 -52.1467,-16.16547 -23.466,0 -46.4106,7.30054 -22.4231,7.30053 -38.0671,20.33721 l -25.5519,-47.4535 q 22.4231,-17.20841 53.1897,-25.55188 31.288,-8.86494 64.6619,-8.86494 60.4901,0 93.3426,29.20215 33.3738,28.68069 33.3738,89.17086 v 163.21916 z m -87.6064,3.65027 q -31.288,0 -54.754,-10.42934 -23.4661,-10.95081 -36.5027,-29.72362 -12.5152,-19.29428 -12.5152,-43.28176 0,-23.46601 10.9508,-42.23882 11.4722,-18.77281 37.0241,-29.72362 25.5519,-10.95081 67.7907,-10.95081 h 80.8274 v 43.28176 h -76.1342 q -33.3739,0 -44.8461,10.95081 -11.4723,10.42934 -11.4723,26.07335 0,17.72988 14.0796,28.15921 14.0796,10.42934 39.11,10.42934 23.9875,0 42.7603,-10.9508 19.2943,-10.95081 27.6378,-32.33095 l 10.9508,39.11002 q -9.3864,24.50895 -33.8954,38.06709 -23.9875,13.55814 -61.0116,13.55814 z"
          style="font-weight:600;-inkscape-font-specification:'Montserrat Semi-Bold';fill-opacity:1" id="path849" />
        <path
          d="M 4022.0472,483.35971 V 189.25233 q 0,-43.80322 25.5519,-69.87657 26.0734,-26.594817 74.0483,-26.594817 17.2084,0 32.331,3.650269 15.644,3.650268 26.0733,11.472278 l -17.7299,49.01789 q -7.3005,-5.73614 -16.6869,-8.34347 -9.3864,-3.1288 -19.2943,-3.1288 -20.3372,0 -30.7665,11.47227 -10.4294,10.95081 -10.4294,33.37389 v 31.28802 l 2.0859,29.20215 v 232.57427 z m -45.8891,-224.2308 v -52.1467 h 185.6423 v 52.1467 z"
          style="font-weight:600;-inkscape-font-specification:'Montserrat Semi-Bold';fill-opacity:1" id="path851" />
        <path
          d="m 4308.3324,487.00998 q -45.8891,0 -70.9196,-23.46601 -25.0304,-23.98749 -25.0304,-70.39805 V 143.36324 h 65.1834 v 248.21828 q 0,19.81575 9.9079,30.76655 10.4293,10.95081 28.6807,10.95081 21.9016,0 36.5027,-11.47227 l 18.2513,46.41056 q -11.4723,9.3864 -28.1592,14.07961 -16.687,4.6932 -34.4168,4.6932 z M 4166.4933,259.12891 v -52.1467 h 185.6423 v 52.1467 z"
          style="font-weight:600;-inkscape-font-specification:'Montserrat Semi-Bold';fill-opacity:1" id="path853" />
      </g>
      <path id="rect10006-4-4-0-1-3"
        style="font-variation-settings:normal;vector-effect:none;fill:url(#linearGradient39099);fill-opacity:1;fill-rule:evenodd;stroke:#000080;stroke-width:0;stroke-linecap:round;stroke-linejoin:round;stroke-miterlimit:4;stroke-dasharray:none;stroke-dashoffset:0;stroke-opacity:1;-inkscape-stroke:none;stop-color:#000000"
        d="M 98.833464,1.583159e-6 A 98.833436,98.833436 0 0 0 1.5831553e-6,98.832465 V 494.16754 A 98.833436,98.833436 0 0 0 98.833464,593 H 494.16915 a 98.833436,98.833436 0 0 0 98.83237,-98.83246 V 98.832465 A 98.833436,98.833436 0 0 0 494.16915,1.583159e-6 Z m 0,98.837504416841 197.669906,197.665114 h 98.83344 V 98.837506 h 98.83234 V 494.17281 L 296.50337,296.50262 H 197.67101 V 494.17281 H 98.833464 Z" />
    </g>
  </svg>