<?xml version="1.0" encoding="UTF-8" standalone="no"?>
<!-- Created with Inkscape (http://www.inkscape.org/) -->

<svg
   width="860.17542mm"
   height="157.52914mm"
   viewBox="0 0 860.17542 157.52914"
   version="1.1"
   id="svg17883"
   xmlns="http://www.w3.org/2000/svg"
   xmlns:svg="http://www.w3.org/2000/svg">
  <defs
     id="defs17880" />
  <g
     id="layer1"
     transform="translate(362.7819,-26.6455)">
    <g
       fill="var(--color-brand)"
       data-v-4efc4064=""
       id="g10-7-3-79"
       style="fill:#00af5c;fill-opacity:1"
       transform="matrix(0.26458333,0,0,0.26458333,-362.7819,26.6455)">
      <path
         d="m 29,424.4 188.2,-112.95 -17.15,-45.48 53.75,-55.21 67.93,-14.64 19.67,24.21 -31.32,31.72 -27.3,8.6 -19.52,20.05 9.56,26.6 19.4,20.6 27.36,-7.28 19.47,-21.38 42.51,-13.47 12.67,28.5 -43.87,53.78 -73.5,23.27 -32.97,-36.7 L 55.06,467.94 C 46.1,456.41 35.67,440.08 29,424.4 Z m 543.03,-230.25 -149.5,40.32 c 8.24,21.92 10.95,34.8 13.23,49 l 149.23,-40.26 c -2.38,-15.94 -6.65,-32.17 -12.96,-49.06 z"
         data-v-4efc4064=""
         id="path4-3-5-7"
         style="fill:#00af5c;fill-opacity:1" />
      <path
         d="m 51.28,316.13 c 10.59,125 115.54,223.3 243.27,223.3 96.51,0 180.02,-56.12 219.63,-137.46 l 48.61,16.83 C 516.01,520.14 413.44,590.55 294.55,590.55 138.6,590.55 10.71,469.38 0,316.13 Z M 0.78,265.24 C 15.86,116.36 141.73,0 294.56,0 c 162.97,0 295.28,132.31 295.28,295.28 0,26.14 -3.4,51.49 -9.8,75.63 l -48.48,-16.78 a 244.28,244.28 0 0 0 7.15,-58.85 C 538.71,160.53 429.31,51.13 294.56,51.13 169.98,51.13 67.07,144.63 52.24,265.24 H 0.8 Z"
         class="ring ring--large"
         data-v-4efc4064=""
         id="path6-2-7-58"
         style="fill:#00af5c;fill-opacity:1" />
      <path
         d="m 293.77,153.17 c -78.49,0.07 -142.2,63.83 -142.2,142.34 0,78.56 63.79,142.34 142.35,142.34 3.98,0 7.93,-0.16 11.83,-0.49 l 14.22,49.76 a 194.65,194.65 0 0 1 -26.05,1.74 c -106.72,0 -193.36,-86.64 -193.36,-193.35 0,-106.72 86.64,-193.35 193.36,-193.35 2.64,0 5.28,0.05 7.9,0.16 z m 58.2,-42.13 c 78.39,24.67 135.3,97.98 135.3,184.47 0,80.07 -48.77,148.83 -118.2,178.18 L 354.9,424.14 c 48.08,-22.85 81.36,-71.89 81.36,-128.63 0,-60.99 -38.44,-113.07 -92.39,-133.32 z"
         class="ring ring--small"
         data-v-4efc4064=""
         id="path8-4-4-76"
         style="fill:#00af5c;fill-opacity:1" />
    </g>
    <g
       aria-label="packrinth"
       fill="currentColor"
       transform="scale(1.001167,0.99883437)"
       id="text1-3-47-75"
       style="font-size:140.699px;line-height:1.25;font-family:Montserrat;-inkscape-font-specification:Montserrat;letter-spacing:-0.562794px;stroke-width:0.281396">
      <path
         d="m -137.03546,158.07886 q -9.14543,0 -16.74318,-4.22097 -7.45705,-4.22097 -11.95941,-12.66291 -4.36167,-8.58264 -4.36167,-21.66765 0,-13.22571 4.22097,-21.667648 4.36167,-8.44194 11.81871,-12.522211 7.45705,-4.22097 17.02458,-4.22097 11.11522,0 19.55716,4.783766 8.58264,4.783766 13.50711,13.366406 5.065164,8.582637 5.065164,20.260657 0,11.67802 -5.065164,20.40135 -4.92447,8.58264 -13.50711,13.36641 -8.44194,4.78377 -19.55716,4.78377 z m -41.6469,26.31071 V 81.960695 h 16.74318 V 99.68877 l -0.5628,19.97926 1.40699,19.97926 v 44.74228 z m 39.67712,-41.36551 q 6.33145,0 11.25592,-2.81398 5.06516,-2.81398 8.01984,-8.16054 2.95468,-5.34656 2.95468,-12.52221 0,-7.31635 -2.95468,-12.52221 -2.95468,-5.34656 -8.01984,-8.160544 -4.92447,-2.813981 -11.25592,-2.813981 -6.33146,0 -11.39662,2.813981 -5.06517,2.813984 -8.01985,8.160544 -2.95467,5.20586 -2.95467,12.52221 0,7.17565 2.95467,12.52221 2.95468,5.34656 8.01985,8.16054 5.06516,2.81398 11.39662,2.81398 z"
         style="font-weight:600;-inkscape-font-specification:'Montserrat Semi-Bold'"
         id="path18383" />
      <path
         d="m -37.420443,157.09396 v -15.19549 l -0.984893,-3.23608 v -26.59211 q 0,-7.73844 -4.643067,-11.95941 -4.643067,-4.361673 -14.069901,-4.361673 -6.331455,0 -12.522211,1.969786 -6.050057,1.969787 -10.271028,5.487257 l -6.894251,-12.803605 q 6.050057,-4.643067 14.351299,-6.894251 8.44194,-2.391883 17.446676,-2.391883 16.321085,0 25.185122,7.879144 9.004737,7.738445 9.004737,24.059535 v 44.03878 z m -23.637433,0.9849 q -8.44194,0 -14.773395,-2.81398 -6.331456,-2.95468 -9.848931,-8.01985 -3.376776,-5.20586 -3.376776,-11.67801 0,-6.33146 2.954679,-11.39662 3.095378,-5.06517 9.98963,-8.01985 6.894251,-2.95468 18.29087,-2.95468 h 21.808346 v 11.67802 h -20.542055 q -9.004736,0 -12.100114,2.95468 -3.095378,2.81398 -3.095378,7.03495 0,4.78377 3.798873,7.59775 3.798873,2.81398 10.552425,2.81398 6.472155,0 11.537319,-2.95468 5.205863,-2.95468 7.457047,-8.72334 l 2.954679,10.55243 q -2.532582,6.61285 -9.145435,10.27102 -6.472154,3.65818 -16.461784,3.65818 z"
         style="font-weight:600;-inkscape-font-specification:'Montserrat Semi-Bold'"
         id="path18385" />
      <path
         d="m 35.743011,158.07886 q -11.818717,0 -21.104851,-4.92447 -9.1454354,-5.06516 -14.35129858,-13.7885 -5.20586322,-8.72334 -5.20586322,-19.83856 0,-11.25592 5.20586322,-19.83856 Q 5.4927246,90.965431 14.63816,86.040966 q 9.286134,-4.924465 21.104851,-4.924465 10.974522,0 19.275763,4.502368 8.441941,4.361669 12.80361,12.944308 l -13.507105,7.879143 q -3.376776,-5.34656 -8.301241,-7.879143 -4.783766,-2.532582 -10.411726,-2.532582 -6.472155,0 -11.678018,2.813981 -5.205863,2.813984 -8.160542,8.160544 -2.954679,5.20586 -2.954679,12.52221 0,7.31635 2.954679,12.66291 2.954679,5.20586 8.160542,8.01984 5.205863,2.81398 11.678018,2.81398 5.62796,0 10.411726,-2.53258 4.924465,-2.53258 8.301241,-7.87914 l 13.507105,7.87914 q -4.361669,8.44194 -12.80361,13.08501 -8.301241,4.50237 -19.275763,4.50237 z"
         style="font-weight:600;-inkscape-font-specification:'Montserrat Semi-Bold'"
         id="path18387" />
      <path
         d="m 96.102927,140.35078 0.422097,-22.08974 39.255026,-36.300345 h 21.10485 l -33.34567,33.486365 -9.28613,7.73844 z M 81.751628,157.09396 V 52.695302 H 99.339004 V 157.09396 Z m 56.701702,0 -27.43631,-33.90846 11.11522,-14.0699 37.70734,47.97836 z"
         style="font-weight:600;-inkscape-font-specification:'Montserrat Semi-Bold'"
         id="path18389" />
      <path
         d="M 169.96998,157.09396 V 81.960695 h 16.74318 v 20.682755 l -1.96978,-6.050059 q 3.37677,-7.597746 10.55242,-11.537318 7.31635,-3.939572 18.15017,-3.939572 v 16.743181 q -1.12559,-0.281398 -2.11048,-0.281398 -0.98489,-0.140699 -1.96979,-0.140699 -9.98963,0 -15.89898,5.909355 -5.90936,5.76866 -5.90936,17.30598 v 36.44104 z"
         style="font-weight:600;-inkscape-font-specification:'Montserrat Semi-Bold'"
         id="path18391" />
      <path
         d="M 227.7974,157.09396 V 81.960695 h 17.58738 v 75.133265 z m 8.86404,-87.514778 q -4.92446,0 -8.16054,-3.095378 -3.09538,-3.095378 -3.09538,-7.457047 0,-4.502368 3.09538,-7.457047 3.23608,-3.095378 8.16054,-3.095378 4.92447,0 8.01985,2.954679 3.23607,2.81398 3.23607,7.175649 0,4.643067 -3.09538,7.879144 -3.09537,3.095378 -8.16054,3.095378 z"
         style="font-weight:600;-inkscape-font-specification:'Montserrat Semi-Bold'"
         id="path18393" />
      <path
         d="m 310.52835,81.116501 q 9.00474,0 16.03969,3.517475 7.17565,3.517475 11.25592,10.833823 4.08027,7.175651 4.08027,18.572271 v 43.05389 h -17.58737 v -40.80271 q 0,-9.98963 -4.78377,-14.91409 -4.64307,-4.924468 -13.08501,-4.924468 -6.19075,0 -10.97452,2.532583 -4.78377,2.532585 -7.45705,7.597745 -2.53258,4.92447 -2.53258,12.52221 v 37.98873 H 267.89656 V 81.960695 h 16.74318 v 20.260655 l -2.95468,-6.190755 q 3.93957,-7.175649 11.39662,-10.974522 7.59774,-3.939572 17.44667,-3.939572 z"
         style="font-weight:600;-inkscape-font-specification:'Montserrat Semi-Bold'"
         id="path18395" />
      <path
         d="m 391.99297,158.07886 q -12.38151,0 -19.13506,-6.33146 -6.75355,-6.47215 -6.75355,-18.99436 V 65.358212 h 17.58737 v 66.972728 q 0,5.34656 2.67328,8.30124 2.81398,2.95468 7.73845,2.95468 5.90936,0 9.84893,-3.09538 l 4.92446,12.52221 q -3.09537,2.53258 -7.59774,3.79888 -4.50237,1.26629 -9.28614,1.26629 z M 353.72284,96.593391 v -14.0699 h 50.08885 v 14.0699 z"
         style="font-weight:600;-inkscape-font-specification:'Montserrat Semi-Bold'"
         id="path18397" />
      <path
         d="m 465.43784,81.116501 q 9.00474,0 16.03969,3.517475 7.17565,3.517475 11.25592,10.833823 4.08027,7.175651 4.08027,18.572271 v 43.05389 h -17.58738 v -40.80271 q 0,-9.98963 -4.78376,-14.91409 -4.64307,-4.924468 -13.08501,-4.924468 -6.19076,0 -10.97452,2.532583 -4.78377,2.532585 -7.45705,7.597745 -2.53258,4.92447 -2.53258,12.52221 v 37.98873 H 422.80604 V 52.695302 h 17.58738 v 49.526048 l -3.79888,-6.190755 q 3.93958,-7.175649 11.39662,-10.974522 7.59775,-3.939572 17.44668,-3.939572 z"
         style="font-weight:600;-inkscape-font-specification:'Montserrat Semi-Bold'"
         id="path18399" />
    </g>
  </g>
</svg>
