<?xml version="1.0" encoding="UTF-8" standalone="no"?>
<!-- Created with Inkscape (http://www.inkscape.org/) -->

<svg
   width="975.96466mm"
   height="158.51289mm"
   viewBox="0 0 975.96466 158.51289"
   version="1.1"
   id="svg16153"
   inkscape:version="1.1.2 (b8e25be833, 2022-02-05)"
   sodipodi:docname="pluginrinth.svg"
   xmlns:inkscape="http://www.inkscape.org/namespaces/inkscape"
   xmlns:sodipodi="http://sodipodi.sourceforge.net/DTD/sodipodi-0.dtd"
   xmlns="http://www.w3.org/2000/svg"
   xmlns:svg="http://www.w3.org/2000/svg">
  <sodipodi:namedview
     id="namedview16155"
     pagecolor="#ffffff"
     bordercolor="#999999"
     borderopacity="1"
     inkscape:pageshadow="0"
     inkscape:pageopacity="0"
     inkscape:pagecheckerboard="0"
     inkscape:document-units="mm"
     showgrid="false"
     inkscape:zoom="0.13134003"
     inkscape:cx="1853.9664"
     inkscape:cy="1054.5148"
     inkscape:window-width="1549"
     inkscape:window-height="1095"
     inkscape:window-x="-1578"
     inkscape:window-y="157"
     inkscape:window-maximized="0"
     inkscape:current-layer="text1-3-47-1" />
  <defs
     id="defs16150" />
  <g
     inkscape:label="Layer 1"
     inkscape:groupmode="layer"
     id="layer1"
     transform="translate(382.5723,-47.1644)">
    <g
       fill="var(--color-brand)"
       data-v-4efc4064=""
       id="g10-7-3-1"
       style="fill:#00af5c;fill-opacity:1"
       transform="matrix(0.26458333,0,0,0.26458333,-382.5723,47.1644)"
       inkscape:export-filename="C:\Users\drusi\OneDrive\Documents\svgtest\montserratfont.png"
       inkscape:export-xdpi="19.779469"
       inkscape:export-ydpi="19.779469">
      <path
         d="m 29,424.4 188.2,-112.95 -17.15,-45.48 53.75,-55.21 67.93,-14.64 19.67,24.21 -31.32,31.72 -27.3,8.6 -19.52,20.05 9.56,26.6 19.4,20.6 27.36,-7.28 19.47,-21.38 42.51,-13.47 12.67,28.5 -43.87,53.78 -73.5,23.27 -32.97,-36.7 L 55.06,467.94 C 46.1,456.41 35.67,440.08 29,424.4 Z m 543.03,-230.25 -149.5,40.32 c 8.24,21.92 10.95,34.8 13.23,49 l 149.23,-40.26 c -2.38,-15.94 -6.65,-32.17 -12.96,-49.06 z"
         data-v-4efc4064=""
         id="path4-3-5-99"
         style="fill:#00af5c;fill-opacity:1" />
      <path
         d="m 51.28,316.13 c 10.59,125 115.54,223.3 243.27,223.3 96.51,0 180.02,-56.12 219.63,-137.46 l 48.61,16.83 C 516.01,520.14 413.44,590.55 294.55,590.55 138.6,590.55 10.71,469.38 0,316.13 Z M 0.78,265.24 C 15.86,116.36 141.73,0 294.56,0 c 162.97,0 295.28,132.31 295.28,295.28 0,26.14 -3.4,51.49 -9.8,75.63 l -48.48,-16.78 a 244.28,244.28 0 0 0 7.15,-58.85 C 538.71,160.53 429.31,51.13 294.56,51.13 169.98,51.13 67.07,144.63 52.24,265.24 H 0.8 Z"
         class="ring ring--large"
         data-v-4efc4064=""
         id="path6-2-7-5"
         style="fill:#00af5c;fill-opacity:1" />
      <path
         d="m 293.77,153.17 c -78.49,0.07 -142.2,63.83 -142.2,142.34 0,78.56 63.79,142.34 142.35,142.34 3.98,0 7.93,-0.16 11.83,-0.49 l 14.22,49.76 a 194.65,194.65 0 0 1 -26.05,1.74 c -106.72,0 -193.36,-86.64 -193.36,-193.35 0,-106.72 86.64,-193.35 193.36,-193.35 2.64,0 5.28,0.05 7.9,0.16 z m 58.2,-42.13 c 78.39,24.67 135.3,97.98 135.3,184.47 0,80.07 -48.77,148.83 -118.2,178.18 L 354.9,424.14 c 48.08,-22.85 81.36,-71.89 81.36,-128.63 0,-60.99 -38.44,-113.07 -92.39,-133.32 z"
         class="ring ring--small"
         data-v-4efc4064=""
         id="path8-4-4-3"
         style="fill:#00af5c;fill-opacity:1" />
    </g>
    <g
       aria-label="pluginrinth"
       transform="scale(1.001167,0.99883437)"
       id="text1-3-47-1"
       style="font-size:140.699px;line-height:1.25;font-family:Montserrat;-inkscape-font-specification:Montserrat;letter-spacing:-0.562794px;stroke-width:0.281396">
      <path
         d="m -156.80279,178.6217 q -9.14544,0 -16.74318,-4.22097 -7.45705,-4.22097 -11.95942,-12.66291 -4.36167,-8.58264 -4.36167,-21.66764 0,-13.22571 4.22097,-21.66765 4.36167,-8.44194 11.81872,-12.52221 7.45705,-4.22097 17.02458,-4.22097 11.11522,0 19.55716,4.78376 8.58264,4.78377 13.50711,13.36641 5.06516,8.58264 5.06516,20.26066 0,11.67801 -5.06516,20.40135 -4.92447,8.58264 -13.50711,13.36641 -8.44194,4.78376 -19.55716,4.78376 z m -41.64691,26.31072 V 102.50354 h 16.74319 v 17.72808 l -0.5628,19.97925 1.40699,19.97926 v 44.74229 z m 39.67712,-41.36551 q 6.33146,0 11.25592,-2.81398 5.06517,-2.81398 8.01985,-8.16054 2.95468,-5.34656 2.95468,-12.52221 0,-7.31635 -2.95468,-12.52222 -2.95468,-5.34656 -8.01985,-8.16054 -4.92446,-2.81398 -11.25592,-2.81398 -6.33145,0 -11.39662,2.81398 -5.06516,2.81398 -8.01984,8.16054 -2.95468,5.20587 -2.95468,12.52222 0,7.17565 2.95468,12.52221 2.95468,5.34656 8.01984,8.16054 5.06517,2.81398 11.39662,2.81398 z"
         style="font-weight:600;-inkscape-font-specification:'Montserrat Semi-Bold'"
         id="path16791" />
      <path
         d="M -102.49286,177.63681 V 73.238148 h 17.587372 V 177.63681 Z"
         style="font-weight:600;-inkscape-font-specification:'Montserrat Semi-Bold'"
         id="path16793" />
      <path
         d="m -30.595737,178.6217 q -9.567532,0 -16.88388,-3.51747 -7.316349,-3.65818 -11.39662,-10.97452 -4.080271,-7.45705 -4.080271,-18.71297 v -42.9132 h 17.587376 v 40.52132 q 0,10.13032 4.502368,15.19549 4.643067,4.92446 13.085007,4.92446 6.190757,0 10.693125,-2.53258 4.643067,-2.53258 7.1756491,-7.59775 2.6732811,-5.06516 2.6732811,-12.52221 V 102.50354 H 10.347674 v 75.13327 H -6.3955078 v -20.26066 l 2.9546791,6.19076 q -3.7988731,7.31635 -11.1152213,11.25592 -7.316348,3.79887 -16.039687,3.79887 z"
         style="font-weight:600;-inkscape-font-specification:'Montserrat Semi-Bold'"
         id="path16795" />
      <path
         d="m 66.908652,205.91731 q -10.411727,0 -20.401356,-2.81398 -9.84893,-2.67328 -16.180386,-7.87914 l 7.879145,-13.22571 q 4.924465,4.08027 12.381512,6.47215 7.597746,2.53259 15.336192,2.53259 12.381512,0 18.150171,-5.76866 5.76866,-5.62796 5.76866,-17.02458 v -13.36641 l 1.40699,-17.02458 -0.562796,-17.02458 v -18.29087 h 16.743186 v 63.73665 q 0,20.40136 -10.411731,29.96889 -10.411727,9.70823 -30.109587,9.70823 z m -2.251184,-31.65728 q -10.693125,0 -19.416463,-4.50236 -8.582639,-4.64307 -13.647804,-12.80361 -4.924465,-8.16055 -4.924465,-19.13507 0,-10.83382 4.924465,-18.99436 5.065165,-8.16055 13.647804,-12.66291 8.723338,-4.50237 19.416463,-4.50237 9.567532,0 17.165278,3.79887 7.597747,3.79887 12.100115,11.81872 4.643067,8.01984 4.643067,20.54205 0,12.52221 -4.643067,20.68276 -4.502368,8.01984 -12.100115,11.95941 -7.597746,3.79887 -17.165278,3.79887 z m 2.673281,-14.91409 q 6.612853,0 11.818716,-2.67328 5.205863,-2.81398 8.019843,-7.59775 2.95468,-4.92446 2.95468,-11.25592 0,-6.33145 -2.95468,-11.11522 -2.81398,-4.92446 -8.019843,-7.45705 -5.205863,-2.67328 -11.818716,-2.67328 -6.612853,0 -11.959416,2.67328 -5.205863,2.53259 -8.160542,7.45705 -2.81398,4.78377 -2.81398,11.11522 0,6.33146 2.81398,11.25592 2.954679,4.78377 8.160542,7.59775 5.346563,2.67328 11.959416,2.67328 z"
         style="font-weight:600;-inkscape-font-specification:'Montserrat Semi-Bold'"
         id="path16797" />
      <path
         d="m 129.94184,177.63681 v -75.13327 h 17.58738 v 75.13327 z m 8.86404,-87.514781 q -4.92446,0 -8.16054,-3.095378 -3.09538,-3.095378 -3.09538,-7.457047 0,-4.502368 3.09538,-7.457048 3.23608,-3.095378 8.16054,-3.095378 4.92447,0 8.01984,2.954679 3.23608,2.813981 3.23608,7.17565 0,4.643067 -3.09538,7.879144 -3.09537,3.095378 -8.16054,3.095378 z"
         style="font-weight:600;-inkscape-font-specification:'Montserrat Semi-Bold'"
         id="path16799" />
      <path
         d="m 212.67279,101.65935 q 9.00474,0 16.03969,3.51747 7.17565,3.51748 11.25592,10.83383 4.08027,7.17565 4.08027,18.57226 v 43.0539 H 226.4613 V 136.8341 q 0,-9.98963 -4.78377,-14.9141 -4.64307,-4.92446 -13.08501,-4.92446 -6.19075,0 -10.97452,2.53258 -4.78377,2.53258 -7.45705,7.59775 -2.53258,4.92446 -2.53258,12.52221 v 37.98873 H 170.041 v -75.13327 h 16.74318 v 20.26066 l -2.95468,-6.19076 q 3.93957,-7.17565 11.39662,-10.97452 7.59774,-3.93957 17.44667,-3.93957 z"
         style="font-weight:600;-inkscape-font-specification:'Montserrat Semi-Bold'"
         id="path16801" />
      <path
         d="m 265.85694,177.63681 v -75.13327 h 16.74319 v 20.68276 l -1.96979,-6.05006 q 3.37678,-7.59775 10.55243,-11.53732 7.31634,-3.93957 18.15017,-3.93957 v 16.74318 q -1.1256,-0.2814 -2.11049,-0.2814 -0.98489,-0.1407 -1.96978,-0.1407 -9.98963,0 -15.89899,5.90936 -5.90936,5.76866 -5.90936,17.30598 v 36.44104 z"
         style="font-weight:600;-inkscape-font-specification:'Montserrat Semi-Bold'"
         id="path16803" />
      <path
         d="m 323.68434,177.63681 v -75.13327 h 17.58737 v 75.13327 z m 8.86403,-87.514781 q -4.92446,0 -8.16054,-3.095378 -3.09538,-3.095378 -3.09538,-7.457047 0,-4.502368 3.09538,-7.457048 3.23608,-3.095378 8.16054,-3.095378 4.92447,0 8.01985,2.954679 3.23607,2.813981 3.23607,7.17565 0,4.643067 -3.09537,7.879144 -3.09538,3.095378 -8.16055,3.095378 z"
         style="font-weight:600;-inkscape-font-specification:'Montserrat Semi-Bold'"
         id="path16805" />
      <path
         d="m 406.41532,101.65935 q 9.00473,0 16.03968,3.51747 7.17565,3.51748 11.25592,10.83383 4.08028,7.17565 4.08028,18.57226 v 43.0539 H 420.20382 V 136.8341 q 0,-9.98963 -4.78377,-14.9141 -4.64306,-4.92446 -13.085,-4.92446 -6.19076,0 -10.97453,2.53258 -4.78376,2.53258 -7.45704,7.59775 -2.53259,4.92446 -2.53259,12.52221 v 37.98873 h -17.58737 v -75.13327 h 16.74318 v 20.26066 l -2.95468,-6.19076 q 3.93957,-7.17565 11.39662,-10.97452 7.59775,-3.93957 17.44668,-3.93957 z"
         style="font-weight:600;-inkscape-font-specification:'Montserrat Semi-Bold'"
         id="path16807" />
      <path
         d="m 487.88,178.6217 q -12.38151,0 -19.13507,-6.33145 -6.75355,-6.47216 -6.75355,-18.99437 V 85.901059 h 17.58738 v 66.972731 q 0,5.34656 2.67328,8.30124 2.81398,2.95468 7.73844,2.95468 5.90936,0 9.84893,-3.09538 l 4.92447,12.52221 q -3.09538,2.53258 -7.59775,3.79887 -4.50237,1.26629 -9.28613,1.26629 z m -38.27013,-61.48546 v -14.0699 h 50.08884 v 14.0699 z"
         style="font-weight:600;-inkscape-font-specification:'Montserrat Semi-Bold'"
         id="path16809" />
      <path
         d="m 561.3248,101.65935 q 9.00474,0 16.03969,3.51747 7.17565,3.51748 11.25592,10.83383 4.08027,7.17565 4.08027,18.57226 v 43.0539 H 575.1133 V 136.8341 q 0,-9.98963 -4.78376,-14.9141 -4.64307,-4.92446 -13.08501,-4.92446 -6.19075,0 -10.97452,2.53258 -4.78377,2.53258 -7.45705,7.59775 -2.53258,4.92446 -2.53258,12.52221 v 37.98873 H 518.693 V 73.238148 h 17.58738 V 122.7642 l -3.79887,-6.19076 q 3.93957,-7.17565 11.39662,-10.97452 7.59774,-3.93957 17.44667,-3.93957 z"
         style="font-weight:600;-inkscape-font-specification:'Montserrat Semi-Bold'"
         id="path16811" />
    </g>
  </g>
</svg>
