<?xml version="1.0" encoding="UTF-8" standalone="no"?>
<!-- Created with Inkscape (http://www.inkscape.org/) -->

<svg
   width="1137.3939mm"
   height="156.24968mm"
   viewBox="0 0 1137.3939 156.24968"
   version="1.1"
   id="svg17092"
   xmlns="http://www.w3.org/2000/svg"
   xmlns:svg="http://www.w3.org/2000/svg">
  <defs
     id="defs17089" />
  <g
     id="layer1"
     transform="translate(471.1214,-47.22768)">
    <g
       fill="var(--color-brand)"
       data-v-4efc4064=""
       id="g10-7-3-8"
       style="fill:#00af5c;fill-opacity:1"
       transform="matrix(0.26458333,0,0,0.26458333,-471.1214,47.22768)">
      <path
         d="m 29,424.4 188.2,-112.95 -17.15,-45.48 53.75,-55.21 67.93,-14.64 19.67,24.21 -31.32,31.72 -27.3,8.6 -19.52,20.05 9.56,26.6 19.4,20.6 27.36,-7.28 19.47,-21.38 42.51,-13.47 12.67,28.5 -43.87,53.78 -73.5,23.27 -32.97,-36.7 L 55.06,467.94 C 46.1,456.41 35.67,440.08 29,424.4 Z m 543.03,-230.25 -149.5,40.32 c 8.24,21.92 10.95,34.8 13.23,49 l 149.23,-40.26 c -2.38,-15.94 -6.65,-32.17 -12.96,-49.06 z"
         data-v-4efc4064=""
         id="path4-3-5-4"
         style="fill:#00af5c;fill-opacity:1" />
      <path
         d="m 51.28,316.13 c 10.59,125 115.54,223.3 243.27,223.3 96.51,0 180.02,-56.12 219.63,-137.46 l 48.61,16.83 C 516.01,520.14 413.44,590.55 294.55,590.55 138.6,590.55 10.71,469.38 0,316.13 Z M 0.78,265.24 C 15.86,116.36 141.73,0 294.56,0 c 162.97,0 295.28,132.31 295.28,295.28 0,26.14 -3.4,51.49 -9.8,75.63 l -48.48,-16.78 a 244.28,244.28 0 0 0 7.15,-58.85 C 538.71,160.53 429.31,51.13 294.56,51.13 169.98,51.13 67.07,144.63 52.24,265.24 H 0.8 Z"
         class="ring ring--large"
         data-v-4efc4064=""
         id="path6-2-7-4"
         style="fill:#00af5c;fill-opacity:1" />
      <path
         d="m 293.77,153.17 c -78.49,0.07 -142.2,63.83 -142.2,142.34 0,78.56 63.79,142.34 142.35,142.34 3.98,0 7.93,-0.16 11.83,-0.49 l 14.22,49.76 a 194.65,194.65 0 0 1 -26.05,1.74 c -106.72,0 -193.36,-86.64 -193.36,-193.35 0,-106.72 86.64,-193.35 193.36,-193.35 2.64,0 5.28,0.05 7.9,0.16 z m 58.2,-42.13 c 78.39,24.67 135.3,97.98 135.3,184.47 0,80.07 -48.77,148.83 -118.2,178.18 L 354.9,424.14 c 48.08,-22.85 81.36,-71.89 81.36,-128.63 0,-60.99 -38.44,-113.07 -92.39,-133.32 z"
         class="ring ring--small"
         data-v-4efc4064=""
         id="path8-4-4-16"
         style="fill:#00af5c;fill-opacity:1" />
    </g>
    <g
       aria-label="resourcerinth"
       transform="scale(1.001167,0.99883437)"
       id="text1-3-47-4"
       style="font-size:140.699px;line-height:1.25;font-family:Montserrat;-inkscape-font-specification:Montserrat;letter-spacing:-0.562794px;stroke-width:0.281396">
      <path
         d="m -286.89557,177.70018 v -75.13327 h 16.74318 v 20.68276 l -1.96979,-6.05006 q 3.37678,-7.59775 10.55243,-11.53732 7.31635,-3.93957 18.15017,-3.93957 v 16.74318 q -1.12559,-0.2814 -2.11049,-0.2814 -0.98489,-0.1407 -1.96978,-0.1407 -9.98963,0 -15.89899,5.90936 -5.90936,5.76866 -5.90936,17.30598 v 36.44104 z"
         style="font-weight:600;-inkscape-font-specification:'Montserrat Semi-Bold'"
         id="path17693" />
      <path
         d="m -194.45635,178.68507 q -12.52221,0 -21.94904,-4.92446 -9.28614,-5.06517 -14.492,-13.7885 -5.06516,-8.72334 -5.06516,-19.83856 0,-11.25592 4.92446,-19.83856 5.06517,-8.72334 13.7885,-13.64781 8.86404,-4.92446 20.11996,-4.92446 10.97452,0 19.55716,4.78376 8.58264,4.78377 13.50711,13.50711 4.92446,8.72334 4.92446,20.54205 0,1.12559 -0.1407,2.53258 0,1.40699 -0.1407,2.67329 h -62.61105 v -11.67802 h 53.32492 l -6.89425,3.65817 q 0.1407,-6.47215 -2.67328,-11.39662 -2.81398,-4.92446 -7.73845,-7.73844 -4.78376,-2.81398 -11.11522,-2.81398 -6.47215,0 -11.39662,2.81398 -4.78376,2.81398 -7.59774,7.87914 -2.67329,4.92447 -2.67329,11.67802 v 2.81398 q 0,6.75355 3.09538,11.95942 3.09538,5.20586 8.72334,8.01984 5.62796,2.81398 12.94431,2.81398 6.33145,0 11.39662,-1.96979 5.06516,-1.96978 9.00474,-6.19075 l 9.42683,10.83382 q -5.06517,5.90936 -12.80361,9.14543 -7.59775,3.09538 -17.44668,3.09538 z"
         style="font-weight:600;-inkscape-font-specification:'Montserrat Semi-Bold'"
         id="path17695" />
      <path
         d="m -119.60451,178.68507 q -9.42683,0 -18.15017,-2.39188 -8.58264,-2.53258 -13.6478,-6.05006 l 6.75355,-13.3664 q 5.06516,3.23607 12.10011,5.34656 7.03495,2.11048 14.0699,2.11048 8.30125,0 11.95942,-2.25118 3.79887,-2.25118 3.79887,-6.05006 0,-3.09537 -2.53258,-4.64306 -2.53258,-1.68839 -6.61285,-2.53259 -4.08027,-0.84419 -9.14544,-1.54769 -4.92446,-0.70349 -9.98963,-1.82908 -4.92446,-1.26629 -9.00473,-3.51748 -4.08028,-2.39188 -6.61286,-6.33145 -2.53258,-3.93957 -2.53258,-10.41173 0,-7.17565 4.08027,-12.38151 4.08027,-5.34656 11.39662,-8.16054 7.45705,-2.95468 17.58738,-2.95468 7.59774,0 15.33619,1.68839 7.738444,1.68838 12.803608,4.78376 l -6.753552,13.36641 q -5.346566,-3.23608 -10.833826,-4.36167 -5.34656,-1.26629 -10.69312,-1.26629 -8.01985,0 -11.95942,2.39188 -3.79887,2.39188 -3.79887,6.05006 0,3.37677 2.53258,5.06516 2.53258,1.68839 6.61285,2.67328 4.08028,0.9849 9.00474,1.68839 5.06517,0.5628 9.98963,1.82909 4.924466,1.26629 9.004737,3.51747 4.22097,2.11049 6.753552,6.05006 2.532582,3.93957 2.532582,10.27103 0,7.03495 -4.22097,12.24081 -4.080271,5.20586 -11.678021,8.16054 -7.59774,2.81398 -18.15017,2.81398 z"
         style="font-weight:600;-inkscape-font-specification:'Montserrat Semi-Bold'"
         id="path17697" />
      <path
         d="m -37.154973,178.68507 q -11.537318,0 -20.542055,-4.92446 -9.004736,-5.06517 -14.210599,-13.7885 -5.205863,-8.72334 -5.205863,-19.83856 0,-11.25592 5.205863,-19.83856 5.205863,-8.72334 14.210599,-13.64781 9.004737,-4.92446 20.542055,-4.92446 11.678018,0 20.682754,4.92446 9.1454352,4.92447 14.2105994,13.50711 5.2058632,8.58264 5.2058632,19.97926 0,11.11522 -5.2058632,19.83856 -5.0651642,8.72333 -14.2105994,13.7885 -9.004736,4.92446 -20.682754,4.92446 z m 0,-15.05479 q 6.472154,0 11.537319,-2.81398 5.065164,-2.81398 7.879144,-8.16054 2.954679,-5.34657 2.954679,-12.52221 0,-7.31635 -2.954679,-12.52222 -2.81398,-5.34656 -7.879144,-8.16054 -5.065165,-2.81398 -11.39662,-2.81398 -6.472154,0 -11.537318,2.81398 -4.924465,2.81398 -7.879145,8.16054 -2.954679,5.20587 -2.954679,12.52222 0,7.17564 2.954679,12.52221 2.95468,5.34656 7.879145,8.16054 5.065164,2.81398 11.396619,2.81398 z"
         style="font-weight:600;-inkscape-font-specification:'Montserrat Semi-Bold'"
         id="path17699" />
      <path
         d="m 51.063351,178.68507 q -9.567532,0 -16.88388,-3.51747 -7.316348,-3.65818 -11.39662,-10.97452 -4.080271,-7.45705 -4.080271,-18.71297 v -42.9132 h 17.587376 v 40.52131 q 0,10.13033 4.502368,15.1955 4.643067,4.92446 13.085008,4.92446 6.190756,0 10.693124,-2.53258 4.643067,-2.53258 7.175649,-7.59775 2.673281,-5.06516 2.673281,-12.52221 v -37.98873 h 17.587376 v 75.13327 H 75.26358 v -20.26066 l 2.954679,6.19076 q -3.798873,7.31635 -11.115221,11.25592 -7.316348,3.79887 -16.039687,3.79887 z"
         style="font-weight:600;-inkscape-font-specification:'Montserrat Semi-Bold'"
         id="path17701" />
      <path
         d="m 114.51858,177.70018 v -75.13327 h 16.74318 v 20.68276 l -1.96978,-6.05006 q 3.37677,-7.59775 10.55242,-11.53732 7.31635,-3.93957 18.15017,-3.93957 v 16.74318 q -1.12559,-0.2814 -2.11048,-0.2814 -0.98489,-0.1407 -1.96979,-0.1407 -9.98963,0 -15.89899,5.90936 -5.90935,5.76866 -5.90935,17.30598 v 36.44104 z"
         style="font-weight:600;-inkscape-font-specification:'Montserrat Semi-Bold'"
         id="path17703" />
      <path
         d="m 206.11362,178.68507 q -11.81872,0 -21.10485,-4.92446 -9.14544,-5.06517 -14.3513,-13.7885 -5.20587,-8.72334 -5.20587,-19.83856 0,-11.25592 5.20587,-19.83856 5.20586,-8.72334 14.3513,-13.64781 9.28613,-4.92446 21.10485,-4.92446 10.97452,0 19.27576,4.50237 8.44194,4.36166 12.80361,12.9443 l -13.50711,7.87915 q -3.37677,-5.34656 -8.30124,-7.87915 -4.78376,-2.53258 -10.41172,-2.53258 -6.47216,0 -11.67802,2.81398 -5.20586,2.81398 -8.16054,8.16054 -2.95468,5.20587 -2.95468,12.52222 0,7.31634 2.95468,12.66291 2.95468,5.20586 8.16054,8.01984 5.20586,2.81398 11.67802,2.81398 5.62796,0 10.41172,-2.53258 4.92447,-2.53258 8.30124,-7.87915 l 13.50711,7.87915 q -4.36167,8.44194 -12.80361,13.085 -8.30124,4.50237 -19.27576,4.50237 z"
         style="font-weight:600;-inkscape-font-specification:'Montserrat Semi-Bold'"
         id="path17705" />
      <path
         d="m 287.01552,178.68507 q -12.52221,0 -21.94905,-4.92446 -9.28613,-5.06517 -14.49199,-13.7885 -5.06517,-8.72334 -5.06517,-19.83856 0,-11.25592 4.92447,-19.83856 5.06516,-8.72334 13.7885,-13.64781 8.86404,-4.92446 20.11996,-4.92446 10.97452,0 19.55716,4.78376 8.58264,4.78377 13.5071,13.50711 4.92447,8.72334 4.92447,20.54205 0,1.12559 -0.1407,2.53258 0,1.40699 -0.1407,2.67329 h -62.61106 v -11.67802 h 53.32493 l -6.89425,3.65817 q 0.14069,-6.47215 -2.67329,-11.39662 -2.81398,-4.92446 -7.73844,-7.73844 -4.78377,-2.81398 -11.11522,-2.81398 -6.47216,0 -11.39662,2.81398 -4.78377,2.81398 -7.59775,7.87914 -2.67328,4.92447 -2.67328,11.67802 v 2.81398 q 0,6.75355 3.09538,11.95942 3.09538,5.20586 8.72334,8.01984 5.62796,2.81398 12.94431,2.81398 6.33145,0 11.39662,-1.96979 5.06516,-1.96978 9.00473,-6.19075 l 9.42684,10.83382 q -5.06517,5.90936 -12.80361,9.14543 -7.59775,3.09538 -17.44668,3.09538 z"
         style="font-weight:600;-inkscape-font-specification:'Montserrat Semi-Bold'"
         id="path17707" />
      <path
         d="m 338.65203,177.70018 v -75.13327 h 16.74319 v 20.68276 l -1.96979,-6.05006 q 3.37678,-7.59775 10.55242,-11.53732 7.31635,-3.93957 18.15018,-3.93957 v 16.74318 q -1.1256,-0.2814 -2.11049,-0.2814 -0.98489,-0.1407 -1.96978,-0.1407 -9.98963,0 -15.89899,5.90936 -5.90936,5.76866 -5.90936,17.30598 v 36.44104 z"
         style="font-weight:600;-inkscape-font-specification:'Montserrat Semi-Bold'"
         id="path17709" />
      <path
         d="m 396.47949,177.70018 v -75.13327 h 17.58737 v 75.13327 z m 8.86403,-87.514781 q -4.92446,0 -8.16054,-3.095378 -3.09538,-3.095378 -3.09538,-7.457048 0,-4.502368 3.09538,-7.457047 3.23608,-3.095378 8.16054,-3.095378 4.92447,0 8.01985,2.954679 3.23608,2.81398 3.23608,7.175649 0,4.643068 -3.09538,7.879145 -3.09538,3.095378 -8.16055,3.095378 z"
         style="font-weight:600;-inkscape-font-specification:'Montserrat Semi-Bold'"
         id="path17711" />
      <path
         d="m 479.21041,101.72272 q 9.00473,0 16.03968,3.51747 7.17565,3.51748 11.25592,10.83383 4.08028,7.17565 4.08028,18.57226 v 43.0539 h -17.58738 v -40.80271 q 0,-9.98963 -4.78377,-14.9141 -4.64306,-4.92446 -13.085,-4.92446 -6.19076,0 -10.97453,2.53258 -4.78376,2.53258 -7.45704,7.59775 -2.53259,4.92446 -2.53259,12.52221 v 37.98873 h -17.58737 v -75.13327 h 16.74318 v 20.26066 l -2.95468,-6.19076 q 3.93957,-7.17565 11.39662,-10.97452 7.59775,-3.93957 17.44668,-3.93957 z"
         style="font-weight:600;-inkscape-font-specification:'Montserrat Semi-Bold'"
         id="path17713" />
      <path
         d="m 560.67509,178.68507 q -12.38151,0 -19.13507,-6.33145 -6.75355,-6.47216 -6.75355,-18.99437 V 85.964429 h 17.58738 v 66.972731 q 0,5.34656 2.67328,8.30124 2.81398,2.95468 7.73844,2.95468 5.90936,0 9.84893,-3.09538 l 4.92447,12.52221 q -3.09538,2.53258 -7.59775,3.79887 -4.50237,1.26629 -9.28613,1.26629 z m -38.27013,-61.48546 v -14.0699 h 50.08884 v 14.0699 z"
         style="font-weight:600;-inkscape-font-specification:'Montserrat Semi-Bold'"
         id="path17715" />
      <path
         d="m 634.11995,101.72272 q 9.00474,0 16.03969,3.51747 7.17565,3.51748 11.25592,10.83383 4.08027,7.17565 4.08027,18.57226 v 43.0539 h -17.58737 v -40.80271 q 0,-9.98963 -4.78377,-14.9141 -4.64307,-4.92446 -13.08501,-4.92446 -6.19075,0 -10.97452,2.53258 -4.78377,2.53258 -7.45705,7.59775 -2.53258,4.92446 -2.53258,12.52221 v 37.98873 H 591.48815 V 73.301518 h 17.58738 v 49.526052 l -3.79887,-6.19076 q 3.93957,-7.17565 11.39662,-10.97452 7.59774,-3.93957 17.44667,-3.93957 z"
         style="font-weight:600;-inkscape-font-specification:'Montserrat Semi-Bold'"
         id="path17717" />
    </g>
  </g>
</svg>
