<?xml version="1.0" encoding="UTF-8" standalone="no"?>
<!-- Created with Inkscape (http://www.inkscape.org/) -->

<svg
   width="1005.2643mm"
   height="156.24968mm"
   viewBox="0 0 1005.2643 156.24968"
   version="1.1"
   id="svg16910"
   xmlns="http://www.w3.org/2000/svg"
   xmlns:svg="http://www.w3.org/2000/svg">
  <defs
     id="defs16907" />
  <g
     id="layer1"
     transform="translate(400.7832,-1.28883)">
    <g
       fill="var(--color-brand)"
       data-v-4efc4064=""
       id="g10-7-3-63"
       style="fill:#00af5c;fill-opacity:1"
       transform="matrix(0.26458333,0,0,0.26458333,-400.7832,1.28883)">
      <path
         d="m 29,424.4 188.2,-112.95 -17.15,-45.48 53.75,-55.21 67.93,-14.64 19.67,24.21 -31.32,31.72 -27.3,8.6 -19.52,20.05 9.56,26.6 19.4,20.6 27.36,-7.28 19.47,-21.38 42.51,-13.47 12.67,28.5 -43.87,53.78 -73.5,23.27 -32.97,-36.7 L 55.06,467.94 C 46.1,456.41 35.67,440.08 29,424.4 Z m 543.03,-230.25 -149.5,40.32 c 8.24,21.92 10.95,34.8 13.23,49 l 149.23,-40.26 c -2.38,-15.94 -6.65,-32.17 -12.96,-49.06 z"
         data-v-4efc4064=""
         id="path4-3-5-3"
         style="fill:#00af5c;fill-opacity:1" />
      <path
         d="m 51.28,316.13 c 10.59,125 115.54,223.3 243.27,223.3 96.51,0 180.02,-56.12 219.63,-137.46 l 48.61,16.83 C 516.01,520.14 413.44,590.55 294.55,590.55 138.6,590.55 10.71,469.38 0,316.13 Z M 0.78,265.24 C 15.86,116.36 141.73,0 294.56,0 c 162.97,0 295.28,132.31 295.28,295.28 0,26.14 -3.4,51.49 -9.8,75.63 l -48.48,-16.78 a 244.28,244.28 0 0 0 7.15,-58.85 C 538.71,160.53 429.31,51.13 294.56,51.13 169.98,51.13 67.07,144.63 52.24,265.24 H 0.8 Z"
         class="ring ring--large"
         data-v-4efc4064=""
         id="path6-2-7-7"
         style="fill:#00af5c;fill-opacity:1" />
      <path
         d="m 293.77,153.17 c -78.49,0.07 -142.2,63.83 -142.2,142.34 0,78.56 63.79,142.34 142.35,142.34 3.98,0 7.93,-0.16 11.83,-0.49 l 14.22,49.76 a 194.65,194.65 0 0 1 -26.05,1.74 c -106.72,0 -193.36,-86.64 -193.36,-193.35 0,-106.72 86.64,-193.35 193.36,-193.35 2.64,0 5.28,0.05 7.9,0.16 z m 58.2,-42.13 c 78.39,24.67 135.3,97.98 135.3,184.47 0,80.07 -48.77,148.83 -118.2,178.18 L 354.9,424.14 c 48.08,-22.85 81.36,-71.89 81.36,-128.63 0,-60.99 -38.44,-113.07 -92.39,-133.32 z"
         class="ring ring--small"
         data-v-4efc4064=""
         id="path8-4-4-5"
         style="fill:#00af5c;fill-opacity:1" />
    </g>
    <g
       aria-label="shaderrinth"
       transform="scale(1.001167,0.99883437)"
       id="text1-3-47-86"
       style="font-size:140.699px;line-height:1.25;font-family:Montserrat;-inkscape-font-specification:Montserrat;letter-spacing:-0.562794px;stroke-width:0.281396">
      <path
         d="m -193.42403,132.69264 q -9.42683,0 -18.15017,-2.39188 -8.58264,-2.53258 -13.6478,-6.05006 l 6.75355,-13.3664 q 5.06516,3.23607 12.10011,5.34656 7.03495,2.11048 14.0699,2.11048 8.30125,0 11.95942,-2.25118 3.79887,-2.25119 3.79887,-6.05006 0,-3.09538 -2.53258,-4.64307 -2.53258,-1.68838 -6.61285,-2.53258 -4.08027,-0.84419 -9.14544,-1.54769 -4.92446,-0.70349 -9.98963,-1.829084 -4.92446,-1.266291 -9.00473,-3.517475 -4.08027,-2.391883 -6.61286,-6.331455 -2.53258,-3.939572 -2.53258,-10.411726 0,-7.17565 4.08027,-12.381513 4.08027,-5.346562 11.39662,-8.160542 7.45705,-2.954679 17.58738,-2.954679 7.59774,0 15.33619,1.688388 7.73844,1.688388 12.80361,4.783766 l -6.75355,13.366405 q -5.34657,-3.236077 -10.83383,-4.361669 -5.34656,-1.266291 -10.69312,-1.266291 -8.01984,0 -11.95942,2.391883 -3.79887,2.391883 -3.79887,6.050057 0,3.376777 2.53258,5.065165 2.53258,1.688388 6.61286,2.673281 4.08027,0.984893 9.00473,1.688388 5.06517,0.562796 9.98963,1.829087 4.92447,1.266291 9.00474,3.517475 4.22097,2.110485 6.75355,6.050057 2.53258,3.939572 2.53258,10.271032 0,7.03495 -4.22097,12.24081 -4.08027,5.20586 -11.67802,8.16054 -7.59774,2.81398 -18.15017,2.81398 z"
         style="font-weight:600;-inkscape-font-specification:'Montserrat Semi-Bold'"
         id="path17028" />
      <path
         d="m -102.11046,55.730286 q 9.004734,0 16.039684,3.517475 7.17565,3.517475 11.255921,10.833823 4.080271,7.175649 4.080271,18.572269 V 131.70775 H -88.32196 V 90.905037 q 0,-9.989629 -4.783766,-14.914095 -4.643067,-4.924465 -13.085004,-4.924465 -6.19076,0 -10.97453,2.532582 -4.78376,2.532582 -7.45704,7.597747 -2.53259,4.924465 -2.53259,12.522211 v 37.988733 h -17.58737 V 27.309087 h 17.58737 v 49.526049 l -3.79887,-6.190756 q 3.93957,-7.175649 11.39662,-10.974522 7.59775,-3.939572 17.44668,-3.939572 z"
         style="font-weight:600;-inkscape-font-specification:'Montserrat Semi-Bold'"
         id="path17030" />
      <path
         d="M -2.6363319,131.70775 V 116.51226 L -3.621225,113.27618 V 86.684067 q 0,-7.738446 -4.6430671,-11.959416 -4.6430669,-4.361669 -14.0699009,-4.361669 -6.331455,0 -12.522211,1.969786 -6.050057,1.969786 -10.271027,5.487261 L -52.021683,65.01642 q 6.050057,-4.643067 14.351299,-6.894251 8.44194,-2.391883 17.446676,-2.391883 16.321085,0 25.1851223,7.879144 9.0047367,7.738445 9.0047367,24.05953 v 44.03879 z m -23.6374331,0.98489 q -8.44194,0 -14.773395,-2.81398 -6.331456,-2.95468 -9.848931,-8.01984 -3.376776,-5.20587 -3.376776,-11.67802 0,-6.33145 2.954679,-11.396619 3.095378,-5.065164 9.98963,-8.019843 6.894251,-2.954679 18.29087,-2.954679 H -1.2293419 V 99.487676 H -21.771397 q -9.004736,0 -12.100114,2.954684 -3.095378,2.81398 -3.095378,7.03495 0,4.78376 3.798873,7.59774 3.798873,2.81398 10.552425,2.81398 6.472155,0 11.537319,-2.95468 5.2058629,-2.95468 7.457047,-8.72334 l 2.95467913,10.55243 q -2.53258213,6.61285 -9.14543533,10.27103 -6.4721538,3.65817 -16.4617838,3.65817 z"
         style="font-weight:600;-inkscape-font-specification:'Montserrat Semi-Bold'"
         id="path17032" />
      <path
         d="m 67.853848,132.69264 q -10.833823,0 -19.557161,-4.78376 -8.58264,-4.92447 -13.507105,-13.50711 -4.924465,-8.58264 -4.924465,-20.260656 0,-11.678017 4.924465,-20.260657 4.924465,-8.582639 13.507105,-13.366405 8.723338,-4.783766 19.557161,-4.783766 9.426834,0 16.883881,4.22097 7.457047,4.080271 11.818716,12.522211 4.361665,8.441941 4.361665,21.667647 0,13.085006 -4.220966,21.667646 -4.22097,8.44194 -11.678017,12.66291 -7.457047,4.22097 -17.165279,4.22097 z m 2.110485,-15.05479 q 6.331456,0 11.255921,-2.81398 5.065164,-2.81398 8.019843,-8.16054 3.095378,-5.34657 3.095378,-12.522216 0,-7.316348 -3.095378,-12.522211 -2.954679,-5.346563 -8.019843,-8.160543 -4.924465,-2.81398 -11.255921,-2.81398 -6.331455,0 -11.396619,2.81398 -4.924465,2.81398 -8.019843,8.160543 -2.954679,5.205863 -2.954679,12.522211 0,7.175646 2.954679,12.522216 3.095378,5.34656 8.019843,8.16054 5.065164,2.81398 11.396619,2.81398 z m 22.793239,14.0699 V 113.97967 L 93.461067,94.000415 92.054077,74.021156 V 27.309087 H 109.50075 V 131.70775 Z"
         style="font-weight:600;-inkscape-font-specification:'Montserrat Semi-Bold'"
         id="path17034" />
      <path
         d="m 167.46878,132.69264 q -12.52221,0 -21.94904,-4.92446 -9.28614,-5.06517 -14.492,-13.78851 -5.06517,-8.72333 -5.06517,-19.838556 0,-11.25592 4.92447,-19.83856 5.06516,-8.723338 13.7885,-13.647803 8.86404,-4.924465 20.11996,-4.924465 10.97452,0 19.55716,4.783766 8.58264,4.783766 13.50711,13.507104 4.92446,8.723339 4.92446,20.542055 0,1.125592 -0.1407,2.532582 0,1.40699 -0.1407,2.673281 H 139.89178 V 88.091057 h 53.32492 l -6.89425,3.658174 q 0.1407,-6.472154 -2.67328,-11.396619 -2.81398,-4.924466 -7.73845,-7.738446 -4.78376,-2.81398 -11.11522,-2.81398 -6.47215,0 -11.39662,2.81398 -4.78377,2.81398 -7.59775,7.879145 -2.67328,4.924465 -2.67328,11.678017 v 2.81398 q 0,6.753552 3.09538,11.959412 3.09538,5.20587 8.72334,8.01985 5.62796,2.81398 12.94431,2.81398 6.33145,0 11.39662,-1.96979 5.06516,-1.96979 9.00473,-6.19076 l 9.42684,10.83383 q -5.06517,5.90936 -12.80361,9.14543 -7.59775,3.09538 -17.44668,3.09538 z"
         style="font-weight:600;-inkscape-font-specification:'Montserrat Semi-Bold'"
         id="path17036" />
      <path
         d="M 219.1053,131.70775 V 56.57448 h 16.74318 v 20.682753 l -1.96979,-6.050057 q 3.37678,-7.597746 10.55243,-11.537318 7.31635,-3.939572 18.15017,-3.939572 v 16.743181 q -1.12559,-0.281398 -2.11049,-0.281398 -0.98489,-0.140699 -1.96978,-0.140699 -9.98963,0 -15.89899,5.909358 -5.90936,5.76866 -5.90936,17.305978 v 36.441044 z"
         style="font-weight:600;-inkscape-font-specification:'Montserrat Semi-Bold'"
         id="path17038" />
      <path
         d="M 276.93272,131.70775 V 56.57448 h 16.74318 v 20.682753 l -1.96979,-6.050057 q 3.37678,-7.597746 10.55243,-11.537318 7.31635,-3.939572 18.15017,-3.939572 v 16.743181 q -1.12559,-0.281398 -2.11048,-0.281398 -0.9849,-0.140699 -1.96979,-0.140699 -9.98963,0 -15.89899,5.909358 -5.90935,5.76866 -5.90935,17.305978 v 36.441044 z"
         style="font-weight:600;-inkscape-font-specification:'Montserrat Semi-Bold'"
         id="path17040" />
      <path
         d="M 334.76011,131.70775 V 56.57448 h 17.58738 v 75.13327 z m 8.86404,-87.514783 q -4.92447,0 -8.16054,-3.095378 -3.09538,-3.095378 -3.09538,-7.457047 0,-4.502368 3.09538,-7.457047 3.23607,-3.095379 8.16054,-3.095379 4.92446,0 8.01984,2.95468 3.23608,2.81398 3.23608,7.175649 0,4.643067 -3.09538,7.879144 -3.09538,3.095378 -8.16054,3.095378 z"
         style="font-weight:600;-inkscape-font-specification:'Montserrat Semi-Bold'"
         id="path17042" />
      <path
         d="m 417.49109,55.730286 q 9.00474,0 16.03969,3.517475 7.17565,3.517475 11.25592,10.833823 4.08027,7.175649 4.08027,18.572269 V 131.70775 H 431.2796 V 90.905037 q 0,-9.989629 -4.78377,-14.914095 -4.64307,-4.924465 -13.08501,-4.924465 -6.19075,0 -10.97452,2.532582 -4.78377,2.532582 -7.45705,7.597747 -2.53258,4.924465 -2.53258,12.522211 V 131.70775 H 374.85929 V 56.57448 h 16.74319 V 76.835136 L 388.6478,70.64438 q 3.93957,-7.175649 11.39662,-10.974522 7.59774,-3.939572 17.44667,-3.939572 z"
         style="font-weight:600;-inkscape-font-specification:'Montserrat Semi-Bold'"
         id="path17044" />
      <path
         d="m 498.95571,132.69264 q -12.38151,0 -19.13506,-6.33145 -6.75355,-6.47216 -6.75355,-18.99437 V 39.971997 h 17.58737 v 66.972723 q 0,5.34657 2.67328,8.30124 2.81398,2.95468 7.73845,2.95468 5.90936,0 9.84893,-3.09537 l 4.92446,12.52221 q -3.09538,2.53258 -7.59774,3.79887 -4.50237,1.26629 -9.28614,1.26629 z M 460.68558,71.207176 v -14.0699 h 50.08885 v 14.0699 z"
         style="font-weight:600;-inkscape-font-specification:'Montserrat Semi-Bold'"
         id="path17046" />
      <path
         d="m 572.40058,55.730286 q 9.00473,0 16.03968,3.517475 7.17565,3.517475 11.25592,10.833823 4.08028,7.175649 4.08028,18.572269 V 131.70775 H 586.18908 V 90.905037 q 0,-9.989629 -4.78377,-14.914095 -4.64306,-4.924465 -13.085,-4.924465 -6.19076,0 -10.97453,2.532582 -4.78376,2.532582 -7.45704,7.597747 -2.53259,4.924465 -2.53259,12.522211 V 131.70775 H 529.76878 V 27.309087 h 17.58737 v 49.526049 l -3.79887,-6.190756 q 3.93957,-7.175649 11.39662,-10.974522 7.59775,-3.939572 17.44668,-3.939572 z"
         style="font-weight:600;-inkscape-font-specification:'Montserrat Semi-Bold'"
         id="path17048" />
    </g>
  </g>
</svg>
